<svg xmlns="http://www.w3.org/2000/svg" width="200" height="200"><ellipse fill="#0caa4b" cx="99.634" cy="100.155" rx="99.634" ry="96.771"/><g fill="#fff"><path d="M147.773 119.965c.176.47-.312.98-.736.918l-81.67-3.862C61.74 116.407 55 98.75 57.44 95.687l59.68-55.107c.258-.274 1.083-.25 1.296.32m23.708 26.672c-.165-.447.317-1.065.636-1.148 4.78-1.228 9.857 1.44 11.663 6.304 1.84 4.955-.137 10.28-4.73 12.4-.216.1-1.058-.01-1.216-.436"/><path d="M93.342 156.444L81.76 122l-23.033 8.593 19.857 28.87 14.757-3.02m-.48-41.973l-32.395 12.032c-9.093 3.375-18.475.704-20.952-5.97l-3.552-9.565c-2.478-6.673 2.886-14.82 11.98-18.196l32.395-12.03 12.524 33.73zm64.423 2.153c.22.593-.08 1.25-.674 1.472l-4.832 1.793c-.592.22-1.25-.08-1.472-.674l-29.34-79.02c-.222-.592.08-1.25.674-1.472l4.832-1.794c.592-.22 1.252.082 1.47.675l29.34 79.02z"/></g></svg>