<svg xmlns="http://www.w3.org/2000/svg" xmlns:v="https://vecta.io/nano" viewBox="0 0 512 512"><path d="M196.8 238.17a2.87 2.87 0 0 1 1-1c.8-.53 9.94-2 10.42-2.1l14.66-1.82 13.74-6.45c.34-.18 9.06-4.8 15.84-5.56a9.21 9.21 0 0 1 4.27-.14 24.72 24.72 0 0 1 6.27 2.61l17.52 8.08c.52.4 8.54 3.27 8.93 3.3l12.28.82 7.47.64 11.07-.66 12.86-2.3c2.4-.6 12.4-3.45 14.6-4.24a320.49 320.49 0 0 0 7.53-2.86c.75-.3 10.7-4.67 11.7-5.1l4.95-2.17 10.25-5.7 14.15-8 19.87-11.18 91.88-51.68c.65-.36 3.68-2.13 3.68-2.13a39.55 39.55 0 0 1-.08 9.16c-.66 3.95-2.14 10.75-4.1 15a86.66 86.66 0 0 1-7.08 12.69 111.3 111.3 0 0 1-7.9 9.36c-1.95 1.93-8.08 7.43-10.26 9.06s-10.4 7.12-12.7 8.43-9.95 5.35-12.13 6.4l-14.66 6.82-29.25 13.1-8 4.22c-.63.44-9.5 3.45-13.72 5.62s-24.23 11.16-24.23 11.16l.16 1.24 40.28-10.37c2.58-.83 17.58-7.9 21.06-9.45l48.23-21.43s2.46 8.44-8.5 18.46-27.1 14.1-30.26 15.4-57.87 22.1-57.87 22.1v.95L450.9 251s-1.7 6.88-14.7 12.26l-32.8 13.14a.57.57 0 0 0-.36.61l.36 2.62a.54.54 0 0 0 .68.45l25.74-6.68s-5.94 5.95-11.4 10.37-32.18 25.55-42.2 24.06-21.5-2.24-34-9.8l-50.87-33.43c-9.25-5.27-25-15.3-25-15.3l-35.63 4.78s-5.62 2.4-18.06-2.05-16.47-11.08-15.88-13.85zm-13.53 70.93a15.89 15.89 0 0 0-15.08-.43c-8.5 4-4.5 16.22-2.82 18.2s7.32 5.3 10.5 4.17 2.7-2.53 2.6-3.42l-1.3-6.76c-.37-1.52-1-4.93 1-7.43a23.7 23.7 0 0 1 5.1-4.34zm23.23 4.7s-2.84-6.25-8.73-6.25-11.77 1.9-13.3 9.55-1.77 16.8 1.7 20.48 8.08 5.85 10.18 4.1 2-10.13 1.87-14.45 1.25-8.44 4.05-10.4l4.25-3.02zm23-.8s-11-2.38-15.92-.14-8.78 8-9.62 18-.44 12.66.48 15.57 6.67 8.78 12.15 9.15 8.9-1.3 9.28-12.17-.13-14.82 2.4-16.65 5.08-3.83 5.08-3.83zm35.03 11.86s-3.43-6.65-13-5.4-19.75 24.4-19.67 29.9 2.9 17.8 14.07 20.9 22.5-3.32 23.53-4.2a23.76 23.76 0 0 0 2.65-3.17s-8.77-4.3-12-9.9-1-12.1-1-12.1z" fill="#0d652d"/><path d="M94.55 284.23c-5.45-4.4-11.4-10.36-11.4-10.36l25.75 6.68a.55.55 0 0 0 .68-.46l.36-2.6a.6.6 0 0 0-.36-.62L76.8 263.72c-13-5.38-14.7-12.26-14.7-12.26l70.16 17.45v-1l-57.87-22.1c-3.17-1.3-19.3-5.36-30.26-15.4s-8.5-18.4-8.5-18.4l48.23 21.42c3.48 1.55 18.47 8.62 21.06 9.45s40.28 10.37 40.28 10.37l.16-1.23-24.23-11.16c-4.23-2.16-13.06-5.2-13.72-5.63s-8-4.2-8-4.2l-29.3-13.1c-2-.9-12.48-5.77-14.66-6.82s-9.83-5.1-12.12-6.4-10.53-6.8-12.7-8.43-8.3-7.13-10.27-9.06a112.67 112.67 0 0 1-7.89-9.35 87.72 87.72 0 0 1-7.09-12.7c-1.94-4.23-3.42-11-4.08-15a39.8 39.8 0 0 1-.09-9.14l3.7 2.12 9.85 5.56 12.24 6.9 6 3.43 83.72 47c1.13.64 21.26 10.34 22 10.74s22.6 10.36 23.34 10.68 22.1 11.58 22.1 11.58 16.48 14.78 19.23 16.67 7.73 2.23 13.63 2.6 45-.43 52.76 1.4 23.58 11.62 39.1 21.37S370 321.62 370 321.62s-10.72 9-17.5 9.1c0 0-1.7.44-5.2-1.35l-37.73-20.2c-1.73-.94-2.64-.54-2.64-.54l32.87 21.94a9.59 9.59 0 0 1 2.21 3.08 18.44 18.44 0 0 1-14.68 6.92c-9.52-.24-23-10.7-25.66-12.57S285 316.73 285 316.73l-.23.7 22.14 18.15c3 2.53 7.27 5.93 8.56 7.5a32.22 32.22 0 0 1 2.87 4.79s-7.22 5.3-14.12 5.06a33.23 33.23 0 0 1-10.08-2.53 1 1 0 0 0-1 1.76l3 2.4s-3.67 6.76-16.74 5.68c-8-.66-12.6-6.77-15-11.42a13 13 0 0 1-.91-9.47l2.7-9.4s3.2-8.52-2.92-12.93-18.48-3-20.4-4.95-21.42-4.26-25-3.54a27.51 27.51 0 0 1-9.29.77c-4.6-.24-4.2-2.63-9.5-4s-8 .1-12.2-.67-3.53-2.76-8.8-3.3-8.46 1.4-12.78 4.06-13.3 5.6-21.9 6.6-43.4-23.36-48.86-27.77z" fill="#188438"/></svg>