<svg xmlns="http://www.w3.org/2000/svg" xmlns:v="https://vecta.io/nano" viewBox="0 0 300 300"><style><![CDATA[.F{fill:#1e8e3e}.G{stroke:#1e8e3e}.H{stroke-miterlimit:10}]]></style><path d="M40.75 117.38l2.62-18.68 13.13-16 12.75-9 24.48 1.4 73.46 20.45 34.6 21.83 53.7 9.16 26.42 11.54 8.55 8.38-18.75-4.46-21.78-1.45 16 10.64 5.27 7.27-32.43 2.9-18.44 8.8c-26.4 1.12-71-7.56-116.37-16.7l-15.33-7-11.6 2-18.46-2.82-10.73-8.12-1.1-15.6z" fill="#bcddc5"/><path d="M98.5 150.2l-1.22 3.3-3.56 3.9L80.9 164l11.43 4.1 9.5 10.2 13.57 18.43 66.95 18.13 19.17 3.9 43.96 6.4-23.08-29.68-11.2-9.56 44.7-3.13-12.13-9.3-17.96-8.67-20.75 2.7-16.03.56-25.77-7.56-32.28-9.4-19.06-2.43-13.4 1.5zm-17.1-40.3c-.4 0-11.9 2.82-11.9 2.82l-10.87 7.83 1.7 7.74L70 131l5.88-3.28 2.44-4.07z" class="F"/><path d="M46.78 121.86l-20.45 6.03-12.06 13.18-5.73 27.04 7.73 14.8 3.16-.64 1.03-14.16 9.5-6.82 13.4-1.56 1.7 4.28-5.55 10.6 1.24 14.7 57.08-37.25v-3.36l-13.45-1.8-7.3 1.5-17.43-1.22-10.35-8-2.5-17.34z" fill="#bcddc5"/><path d="M49.77 162.97l-.65 1.04-1.7 3.72-.97 3.4-.28 2.2.38 1.18 31.24-19.65-11.34-1.12-16.7 9.24z" class="F"/><g fill="none" stroke-width="4" class="G H"><path d="M46.63 161.16c-14.16-3.83-32.75 1.17-26.24 25.67-7.55-5.92-13.24-16.14-9.76-31.6s8.46-27.4 26.48-31.6c2.9-.67 5.8-1.16 7.82-1.47a2.29 2.29 0 0 1 2.63 2.35c-.16 4.27-.1 12.43 2.48 16 3.56 5 22.3 10.38 32.83 6.8a17.89 17.89 0 0 1 14.18 1.12 2.91 2.91 0 0 1 .24 5L41.37 189.3s-4-12.23-.93-17.34 6.2-10.8 6.2-10.8z"/><path d="M38.58 123.33c-1.93-21.5 18-44.28 29.66-49.4s92.83 18.12 104.3 26.17 30.66 22 58.23 23.22 49.55 8.68 60.7 24.48c-35.77-11.46-43.36-8.36-43.36-8.36s19.5 10.84 26 19.35c-37.63 0-48.63 6.2-48.63 6.2s25 13.58 36.47 21.94c0 0-25.94-7.85-52.88-.42 14.24 4 36.62 40.26 36.62 40.26s-123.15-20-134.18-34.68-15-26.85-33.3-26.4M53.6 98.33c-8.13 5.34-16.6 26.16-3.25 23.82s17.54-12.78 34.84-12.32 26.23 11 34.24 6.6"/></g><path d="M118.23,114.75a25.77,25.77,0,0,0,4.33-1.59,33.73,33.73,0,0,0,4.21-2.28,35.7,35.7,0,0,1-3,3.88,30.09,30.09,0,0,1-3.67,3.54Z" class="F"/><path d="M47.88 104.5l-7.13 10.17.77 7.48" fill="none" stroke-width="4" class="G H"/><path d="M51.8 97.12a46.85 46.85 0 0 1 6.11-2.85 41.2 41.2 0 0 1 6.33-1.86A39.35 39.35 0 0 0 58.91 96a42 42 0 0 0-4.65 4.26z" class="F"/><path d="M46.63 161.16C54 163 62.3 154 67 153.5s11.27 1.16 11.27 1.16L46.63 174.6c-1.54.07 1-11.54 6.2-14.87" fill="#15543b"/><path d="M58.64 119.93c-.4 7 3.2 13.7 13.3 10.57s6.16-19.3 12.43-20.68" fill="none" stroke-width="3" class="G H"/><path d="M41.87 137.47a14.87 14.87 0 0 1 1.52 1.8c.4.55.74 1 1 1.56l.88 1.67a21.33 21.33 0 0 1 .86 2.17 3.72 3.72 0 0 1-2.54-.52 5 5 0 0 1-1.78-1.78 4.51 4.51 0 0 1 .06-4.9z" class="F"/><path d="M98.63 151.14c22.1-10.53 77.73 16.43 90.5 16.9s33.9-1.3 38.72-4" fill="none" stroke-width="3" class="G H"/></svg>